#!OML:ASF E:/inclinewalkrobotboard/Project1/Captureday1/Session1/subject1.ASF
:FULLY-SPECIFIED
:DEGREES
388
root 0 0 0 1.971060799124194 -10.74316503999906 0.8977877442812826
lowerback -0.27164708556200523 -1.7780320690365783 -2.680025537711696
upperback -0.26822443529621304 -2.326992178410653 1.6780623215775667
thorax 0.01266814517659176 -1.171587925322395 3.1616592936744548
lowerneck -25.181971282788492 -1.7799370762303477 -7.928718195156517
upperneck 27.51952541410725 0.0367356598190991 2.19160451709559
head 13.433647182797126 -0.6087459049902846 2.3008114829820068
rclavicle -1.8492922346464106E-15 4.937124354030716E-16
rhumerus -32.715604122999686 -2.76570780236384 -79.72192544005041
rradius 29.866620056410532
rwrist 19.353192725049265
rhand -17.965918930190547 9.308413889064237
rfingers 7.125019999999933
rthumb 8.298955608659508 -20.4952355870749
lclavicle -3.636856230384893E-15 2.8069201336335046E-15
lhumerus -23.0377450877319 -6.6902830852216075 91.72920191229323
lradius 63.72413201045402
lwrist 4.152978696437469
lhand -27.328993166446686 22.509902799522465
lfingers 7.125019999999994
lthumb -0.7689744093528086 52.59497222050772
rfemur -32.27156861734855 1.7359414298499098 17.487701932990298
rtibia 43.19060245083222
rfoot -4.2713340010917165 -10.986936534992804
rtoes -2.6613381165951253
lfemur 6.115998704790079 -4.135763831561926 -29.998573182428878
ltibia 16.005844215264542
lfoot -22.005927297374136 0.5194726438252628
ltoes -0.4755175262252376
389
root 0 0 0 1.9913571969602128 -10.77526100332288 0.919802077790254
lowerback -0.2644157065564836 -1.802005911670725 -2.6820871615879502
upperback -0.24069447750738265 -2.358319523658889 1.7000118120155896
thorax 0.041026244237903686 -1.189063239919304 3.1871673637522195
lowerneck -25.405317898690715 -1.7833181930547348 -7.923471006703514
upperneck 27.17792230820184 0.05110049776208592 2.1990964710885055
head 13.346329511741553 -0.5897113361666207 2.298737242153994
rclavicle -1.3572131034203394E-16 -5.531245356541697E-16
rhumerus -33.222618560328506 -2.562639143553918 -78.9727046869031
rradius 29.36804911695363
rwrist 19.6715071062505
rhand -17.955983347699394 9.23786145114898
rfingers 7.125019999999938
rthumb 8.308170466755358 -20.590339615851143
lclavicle -9.799331608116846E-16 2.02214736513308E-15
lhumerus -22.864881406743383 -7.592220982032233 91.4404244984359
lradius 64.33310980029529
lwrist 4.4912839787018175
lhand -27.219793531462102 23.076285944547184
lfingers 7.125019999999988
lthumb -0.6605464769509028 53.17729030800418
rfemur -33.08866019542489 3.0190597868081097 17.00395666390087
rtibia 34.61801083573556
rfoot -4.54927332950993 -11.998216278923794
rtoes -4.099979925968889
lfemur 11.659839620633964 -4.6193575072629525 -30.306420440611983
ltibia 14.348435515908212
lfoot -19.906548899431357 -1.6164802799505562
ltoes -4.621163056848987
390
root 0 0 0 2.00875587678238 -10.790412565909092 0.9509596550809251
lowerback -0.21322815644425908 -1.827216992821849 -2.6778760081152146
upperback -0.20895623995995138 -2.3908852915570895 1.749864959070142
thorax 0.050118955992015435 -1.2073875013010023 3.239392078217476
lowerneck -25.777431945868347 -1.7821041255552523 -7.874993030965768
upperneck 26.42042101739955 0.07845684495857808 2.2120919804465635
head 13.136690455146951 -0.5516075500031161 2.2884744938310595
rclavicle 1.7722298064597376E-15 -1.4506540121136223E-15
rhumerus -33.71400622010848 -2.6842162675584533 -78.37017406602412
rradius 28.938179161643074
rwrist 20.03845373089007
rhand -17.88344159853404 9.122560688114254
rfingers 7.125019999999945
rthumb 8.377320798374855 -20.716634299259145
lclavicle 1.2455506076348366E-15 1.4285427585483887E-15
lhumerus -22.674815010008945 -8.319642582317735 91.24479871098892
lradius 64.86719436821687
lwrist 4.67716118002237
lhand -27.212829139033126 23.507753097504846
lfingers 7.125019999999984
lthumb -0.6496500356762906 53.616716856195744
rfemur -33.69146416338779 3.753352883720944 17.232309130026657
rtibia 29.73565260310173
rfoot -4.819157338279796 -12.147523269419226
rtoes -4.263465118115806
lfemur 18.569113820235806 -5.0584093527216965 -29.965959966471747
ltibia 15.321990364692969
lfoot -14.623184212542998 -5.160066544360308
ltoes -9.79396738278096
391
root 0 0 0 2.021014412601158 -10.763582790150528 0.991352927328881
lowerback -0.10168306384574444 -1.8463057588920744 -2.6683961583578455
upperback -0.17653172487753865 -2.4146096935443424 1.8345507879341991
thorax 0.02618853774874319 -1.221348167917578 3.3257467531726976
lowerneck -26.310353243753234 -1.7803803353617873 -7.7708465145873165
upperneck 25.140000680055884 0.10792562763494917 2.2515291859766107
head 12.769692278985719 -0.49445975777930584 2.273874557367484
rclavicle 3.4312364059894777E-15 -2.014073617165428E-15
rhumerus -34.1074256251519 -3.1440776229131266 -78.01591305442558
rradius 28.642402977904656
rwrist 20.38407324844365
rhand -17.760211125840208 8.994657851049194
rfingers 7.125019999999951
rthumb 8.49539556909111 -20.835564368381135
lclavicle 1.984488526049107E-15 9.006839522775037E-16
lhumerus -22.67389420412905 -8.74353730845057 91.21491226893605
lradius 65.12086874550604
lwrist 4.737677182197188
lhand -27.2298672793073 23.64328070268168
lfingers 7.125019999999983
lthumb -0.6645005235144978 53.7538957430039
rfemur -35.05447860834921 4.080966567702883 17.871139909964345
rtibia 27.135698387715617
rfoot -4.799458660812311 -11.824026211916696
rtoes -2.8510726848837917
lfemur 21.2172249086359 -4.453814384743925 -28.18065586217555
ltibia 23.72130168945852
lfoot -7.949723909328877 -9.823477756391796
ltoes -14.248981242646657
392
root 0 0 0 1.9829465953523502 -10.628506289865927 1.0190627053089127
lowerback 0.06847041756254169 -1.8167949884665102 -2.6546724503286536
upperback -0.2086708912206216 -2.3703948381968716 1.942566012588775
thorax -0.1066922149756806 -1.199017246420636 3.434110567758059
lowerneck -26.783001244686055 -1.794140802493616 -7.599049784383602
upperneck 23.45571060089416 0.09417023795104085 2.345891773955389
head 12.260265679543119 -0.4447116492736807 2.260438671214544
rclavicle 4.014816850620563E-15 -2.118175444825266E-15
rhumerus -34.37221273841782 -3.808070960834414 -77.88611362837719
rradius 28.475969265506198
rwrist 20.65777924099365
rhand -17.612735168178947 8.892625741452274
rfingers 7.125019999999955
rthumb 8.637786552857461 -20.91895501058364
lclavicle 6.815142973623814E-16 6.758066204149343E-16
lhumerus -22.846930156483808 -8.632165616056618 91.28134361134902
lradius 64.92861836246283
lwrist 4.745421341729752
lhand -27.16974571542235 23.464179332014723
lfingers 7.125019999999983
lthumb -0.6085605663657638 53.575525096496996
rfemur -36.637408678620695 4.526674907662846 20.08534990652659
rtibia 24.967404297199227
rfoot -4.836285066143512 -11.177970029865172
rtoes 1.6447254588630686
lfemur 15.695012347760288 -2.8762383761596912 -23.694397709000032
ltibia 36.37858513631822
lfoot 1.3021034101355031 -15.245804056947174
ltoes -17.116597884905055
